<?xml version="1.0" standalone="no"?>
<!DOCTYPE svg PUBLIC "-//W3C//DTD SVG 20010904//EN"
 "http://www.w3.org/TR/2001/REC-SVG-20010904/DTD/svg10.dtd">
<svg version="1.0" xmlns="http://www.w3.org/2000/svg"
 width="284.000000pt" height="284.000000pt" viewBox="0 0 284.000000 284.000000"
 preserveAspectRatio="xMidYMid meet">

<g transform="translate(0.000000,284.000000) scale(0.100000,-0.100000)"
fill="#000000" stroke="none">
<path d="M2285 2725 c-148 -18 -279 -34 -289 -36 -16 -3 -5 -19 59 -87 l79
-84 -140 -131 c-76 -73 -220 -210 -318 -304 -99 -95 -184 -173 -189 -173 -9 0
-227 130 -227 135 0 2 39 25 88 51 307 167 385 214 448 274 52 48 64 64 53 71
-55 35 -409 219 -422 219 -18 0 -704 -355 -727 -377 -13 -11 -16 -69 -20 -355
l-5 -341 -125 -69 c-69 -37 -133 -78 -142 -89 -17 -19 -18 -54 -18 -409 0
-355 1 -390 18 -408 9 -11 78 -54 152 -95 74 -41 293 -162 485 -269 193 -107
357 -197 365 -200 20 -7 71 20 426 218 165 92 368 205 452 251 84 47 157 93
162 103 6 11 10 169 10 402 0 307 -3 388 -13 403 -8 10 -72 50 -143 89 l-129
71 -3 208 c-1 114 -5 207 -8 207 -4 0 -37 -27 -75 -61 l-69 -61 0 -152 0 -152
-281 -154 c-155 -85 -289 -159 -299 -163 -12 -6 -48 9 -128 53 l-112 61 0 270
c0 229 2 269 14 262 8 -4 83 -64 167 -133 83 -69 158 -129 166 -133 10 -6 52
27 146 115 203 191 616 568 621 568 2 0 34 -36 72 -80 37 -44 70 -80 74 -80 4
0 10 17 13 38 5 31 95 468 112 540 6 27 38 28 -300 -13z m-770 -267 c43 -24
79 -47 79 -52 1 -5 -107 -70 -239 -144 l-240 -134 -94 49 c-52 27 -96 53 -97
58 -4 11 471 263 497 264 8 1 51 -18 94 -41z m-568 -405 c94 -53 103 -60 104
-88 2 -79 -3 -500 -6 -503 -2 -2 -51 22 -109 53 l-106 57 0 269 c0 148 3 269
7 269 4 0 53 -26 110 -57z m-118 -642 c47 -26 116 -65 154 -85 37 -20 67 -39
67 -41 0 -2 -29 -19 -64 -39 l-64 -36 -157 87 c-86 47 -152 90 -148 94 8 8
115 68 122 69 2 0 42 -22 90 -49z m1344 14 c31 -16 57 -34 57 -40 0 -5 -46
-35 -103 -66 -56 -30 -234 -129 -396 -219 -162 -90 -299 -163 -306 -163 -17 0
-345 183 -345 193 0 10 108 70 124 70 6 0 51 -23 100 -50 49 -28 99 -53 110
-55 14 -4 128 54 356 180 184 101 337 184 340 182 3 -1 31 -16 63 -32z m-1478
-253 l140 -78 3 -132 3 -131 63 -36 c34 -19 68 -35 74 -35 9 0 12 36 12 120 0
66 3 120 7 120 4 0 85 -43 180 -96 l173 -96 0 -280 c0 -263 -1 -280 -17 -273
-10 3 -112 59 -228 124 -116 65 -290 162 -387 216 -168 93 -178 101 -180 129
-7 122 -1 526 7 526 6 0 73 -35 150 -78z m1618 -85 c-1 -89 -2 -214 -2 -278
l-1 -116 -142 -79 c-78 -43 -145 -81 -150 -82 -4 -2 -7 124 -6 280 l3 283 135
76 c74 42 142 77 150 78 13 1 15 -22 13 -162z m-453 -365 l0 -279 -174 -96
c-95 -53 -176 -97 -180 -97 -3 0 -6 126 -6 279 l0 279 168 95 c92 53 173 96
180 96 9 1 12 -61 12 -277z"/>
</g>
</svg>
